<svg width="63" height="37" viewBox="0 0 63 37" fill="none" xmlns="http://www.w3.org/2000/svg">
<path d="M0.629488 33.0828L3.78558 36.2386C4.20612 36.6601 4.69057 36.8701 5.23826 36.8701C5.78461 36.8701 6.26884 36.6601 6.68939 36.2386L31.4997 11.4297L56.3088 36.238C56.7296 36.6594 57.2138 36.8695 57.7609 36.8695C58.3081 36.8695 58.7923 36.6594 59.2129 36.238L62.3685 33.0819C62.7899 32.6613 63 32.1771 63 31.6299C63 31.0831 62.7893 30.5988 62.3685 30.1783L32.9517 0.760796C32.5311 0.340028 32.0467 0.129754 31.4997 0.129754C30.9526 0.129754 30.4691 0.340028 30.0488 0.760796L0.629488 30.1783C0.208941 30.5991 -2.48545e-06 31.0833 -2.53323e-06 31.6299C-2.58107e-06 32.1771 0.208941 32.6613 0.629488 33.0828Z" fill="#E35C57"/>
</svg>
