<svg width="25" height="38" viewBox="0 0 25 38" fill="none" xmlns="http://www.w3.org/2000/svg">
<path d="M24.4609 0H23.8453C21.5759 0 17.6926 0.855446 17.5326 4.05699C17.3474 7.74032 17.3161 10.5897 17.2881 13.1038C17.2697 14.7992 17.2519 16.4004 17.1886 18.0206C17.1157 19.9142 18.9671 21.2601 19.7148 21.7254L18.5646 33.7192L18.5605 33.7653L18.5667 33.8102C18.7532 35.216 20.1423 36.1724 20.397 36.3359C21.242 37.0152 21.9808 37.3466 22.6543 37.3466C23.7377 37.3466 24.2205 36.5088 24.3246 36.066L24.4886 0.49546L24.4609 0ZM23.1099 35.9168C23.0725 36.0238 22.9348 36.3596 22.6543 36.3596C22.5032 36.3596 22.0633 36.2877 21.2392 35.6188L21.1739 35.5727C21.1618 35.565 19.9606 34.8057 19.791 33.7488L20.9915 21.2349L20.6878 21.0753C20.664 21.0627 18.3461 19.8227 18.4136 18.052C18.4769 16.4207 18.4946 14.8147 18.513 13.1127C18.5409 10.6063 18.5721 7.76516 18.7568 4.09659C18.8814 1.61264 21.8992 1.1112 23.2604 1.0124L23.1099 35.9168Z" fill="black"/>
<path d="M11.1664 1.77233C11.1671 1.53036 10.9233 1.33282 10.6223 1.33282H10.6216C10.3214 1.33282 10.0769 1.52871 10.0769 1.77123L10.066 10.7423C10.0776 10.8647 10.3016 13.7228 7.26812 14.2983L6.74384 14.351C6.46606 14.3779 6.25901 14.5715 6.26582 14.7965L6.87114 35.1025C6.87182 35.1058 6.89636 35.4411 6.62805 35.6736C6.41971 35.8525 6.06832 35.9436 5.58356 35.9436C5.02793 35.9436 4.62822 35.8427 4.39603 35.6435C4.13044 35.4152 4.15225 35.1047 4.1543 35.08L4.90123 14.7987C4.90941 14.5727 4.70244 14.3785 4.42322 14.351L3.95747 14.3071C0.881055 13.7261 1.09083 10.8641 1.1031 10.7104L1.08878 1.77117C1.08878 1.5292 0.845007 1.33276 0.544053 1.33276C0.24378 1.33276 -0.000680156 1.52975 1.42178e-06 1.77226L0.0143154 10.6775C-0.102765 11.9647 0.517547 14.5578 3.76617 15.1691L3.79753 15.1724L3.06756 35.0268C3.05938 35.0966 3.00758 35.7193 3.58503 36.2284C4.03032 36.6218 4.70372 36.8209 5.58485 36.8209C6.39381 36.8209 7.01745 36.6322 7.44102 36.2597C8.02248 35.7461 7.96735 35.0992 7.96121 35.0564L7.3696 15.1708L7.46154 15.162C10.6516 14.5584 11.2726 11.9654 11.1569 10.7115L11.1664 1.77233Z" fill="black"/>
<path d="M2.9627 11.4347C3.26297 11.4347 3.50743 11.2377 3.50743 10.9952V1.77226C3.50743 1.5303 3.26366 1.33276 2.9627 1.33276C2.66175 1.33276 2.41797 1.52975 2.41797 1.77226V10.9952C2.41873 11.2371 2.66243 11.4347 2.9627 11.4347Z" fill="black"/>
<path d="M5.53204 11.4347C5.83231 11.4347 6.07677 11.2377 6.07677 10.9952V1.77226C6.07677 1.5303 5.83299 1.33276 5.53204 1.33276C5.23108 1.33276 4.9873 1.52975 4.9873 1.77226V10.9952C4.98738 11.2371 5.23108 11.4347 5.53204 11.4347Z" fill="black"/>
<path d="M8.1043 11.4347C8.40458 11.4347 8.64904 11.2377 8.64904 10.9952V1.77226C8.64904 1.5303 8.40526 1.33276 8.1043 1.33276C7.80335 1.33276 7.55957 1.52975 7.55957 1.77226V10.9952C7.55957 11.2371 7.80403 11.4347 8.1043 11.4347Z" fill="black"/>
</svg>
