<svg width="25" height="30" viewBox="0 0 25 30" fill="none" xmlns="http://www.w3.org/2000/svg">
<path d="M5.03472 12.9917C7.03472 17.7083 10.25 21.5667 14.1875 23.9667L17.2431 20.2917C17.625 19.8333 18.1736 19.7 18.6528 19.8833C20.2083 20.5 21.8819 20.8333 23.6111 20.8333C24.3819 20.8333 25 21.575 25 22.5V28.3333C25 29.2583 24.3819 30 23.6111 30C10.5694 30 0 17.3167 0 1.66667C0 0.741667 0.625 0 1.38889 0H6.25C7.02083 0 7.63889 0.741667 7.63889 1.66667C7.63889 3.74167 7.91667 5.75 8.43055 7.61667C8.58333 8.19167 8.47222 8.85 8.09028 9.30833L5.03472 12.9917V12.9917Z" fill="#252525"/>
</svg>
